<svg xmlns="http://www.w3.org/2000/svg">
  <style>:root svg:not(:target) {display: none} </style>

  <svg id="icon-map" viewBox="0 0 27 27">
    <path d="M13.5 27C20.9558 27 27 20.9558 27 13.5C27 6.04416 20.9558 0 13.5 0C6.04416 0 0 6.04416 0 13.5C0 20.9558 6.04416 27 13.5 27Z" fill="white"/>
    <path d="M13.5 21.8996C18.1392 21.8996 21.9 18.1388 21.9 13.4996C21.9 8.86042 18.1392 5.09961 13.5 5.09961C8.86078 5.09961 5.09998 8.86042 5.09998 13.4996C5.09998 18.1388 8.86078 21.8996 13.5 21.8996Z" fill="#81B3D3"/>
  </svg>

  <svg id="icon-vcontakte" viewBox="0 0 24 14">
    <path d="M23.45 0.948C23.616 0.402 23.45 0 22.655 0H20.03C19.362 0 19.054 0.347 18.887 0.73C18.887 0.73 17.552 3.926 15.661 6.002C15.049 6.604 14.771 6.795 14.437 6.795C14.27 6.795 14.019 6.604 14.019 6.057V0.948C14.019 0.292 13.835 0 13.279 0H9.151C8.734 0 8.483 0.304 8.483 0.593C8.483 1.214 9.429 1.358 9.526 3.106V6.904C9.526 7.737 9.373 7.888 9.039 7.888C8.149 7.888 5.984 4.677 4.699 1.003C4.45 0.288 4.198 0 3.527 0H0.9C0.15 0 0 0.347 0 0.73C0 1.412 0.89 4.8 4.145 9.281C6.315 12.341 9.37 14 12.153 14C13.822 14 14.028 13.632 14.028 12.997V10.684C14.028 9.947 14.186 9.8 14.715 9.8C15.105 9.8 15.772 9.992 17.33 11.467C19.11 13.216 19.403 14 20.405 14H23.03C23.78 14 24.156 13.632 23.94 12.904C23.702 12.18 22.852 11.129 21.725 9.882C21.113 9.172 20.195 8.407 19.916 8.024C19.527 7.533 19.638 7.314 19.916 6.877C19.916 6.877 23.116 2.451 23.449 0.948H23.45Z" fill="white"/>
  </svg>

  <svg id="icon-telegram" viewBox="0 0 22 18">
    <path d="M21.4393 1.62225L18.2705 16.566C18.0313 17.6205 17.408 17.883 16.5223 17.3865L11.6938 13.8285L9.36425 16.0695C9.10626 16.3275 8.891 16.5428 8.39375 16.5428L8.741 11.6258L17.6893 3.54C18.0785 3.1935 17.6045 3.00075 17.0848 3.348L6.02225 10.314L1.25976 8.823C0.224006 8.49975 0.205256 7.78725 1.47576 7.29L20.1035 0.113253C20.966 -0.209997 21.7205 0.305253 21.4393 1.623V1.62225Z" fill="white"/>
  </svg>

  <svg id="icon-youtube" viewBox="0 0 20 14">
    <path d="M17.1813 0H2.81331C1.30618 0 0 1.3 0 2.8V11.1C0 12.7 1.30618 14 2.81331 14H17.1813C18.7889 14 19.9946 12.7 19.9946 11.2V2.8C20.095 1.3 18.7889 0 17.1813 0ZM7.03326 10.4V3.6L13.8656 7L7.03326 10.4Z" fill="white"/>
  </svg>

  <svg id="logo-academy" viewBox="0 0 27 36">
    <path d="M13.65 0.949951H13.55L0.0500488 2.34995V27.05L13.55 35.0499L26.95 27.05V2.34995L13.65 0.949951ZM25.05 13.05L13.55 6.24995V6.14995H13.45L13.35 6.04995V6.14995L1.95005 13.05V4.04995L13.45 2.84995L25.05 4.04995V13.05ZM13.45 7.74995L24.95 14.45L20.45 17.05L13.35 12.85V14.25L19.25 17.75L18.35 18.25L13.35 15.25V16.65L17.15 18.95L16.35 19.45L13.35 17.65V19.05L15.25 20.15L13.45 21.25L2.05005 14.55L13.45 7.74995ZM1.95005 16.05L13.35 22.85V23.85L5.45005 19.15V20.55L13.45 25.35V26.45L5.45005 21.75V23.15L13.45 27.95L21.55 23.05V17.85L24.95 15.85V25.85L13.45 32.75L1.95005 25.95V16.05Z" fill="black"/>
  </svg>

  <svg id="icon-house" viewBox="0 0 40 40">
    <path fill="#81B3D2" d="M15.902 33.804h8.353V21.646h-8.353v12.158Zm6.839-1.475h-5.325V23.12h5.273v9.208h.052Z"/><path fill="#81B3D2" d="m38.404 20.628 1.096-1.069-5.169-5.036V.788h-7.205v6.715L19.974.585.5 19.61l1.096 1.069L5.67 16.71V35.94H3.633v1.475h33.361V35.94h-2.663V16.66l4.073 3.968ZM28.64 2.314h4.124v10.734L28.641 9.03V2.314Zm4.176 33.575H7.235V15.185L19.974 2.72l12.791 12.464v20.704h.052Z"/><path fill="#81B3D2" d="M16.058 14.422c0 2.187 1.828 3.968 4.02 3.968 2.245 0 4.073-1.781 4.073-3.968 0-2.188-1.828-3.918-4.073-3.918s-4.02 1.73-4.02 3.918Zm4.02-2.544c1.41 0 2.61 1.12 2.61 2.544 0 1.373-1.148 2.543-2.61 2.543-1.41 0-2.61-1.119-2.61-2.543 0-1.374 1.2-2.544 2.61-2.544ZM10.89 21.646H9.322v1.984h1.566v-1.984ZM13.97 21.646h-1.566v1.984h1.566v-1.984ZM10.89 24.698H9.322v1.983h1.566v-1.983ZM13.97 24.698h-1.566v1.983h1.566v-1.983ZM27.544 21.646h-1.566v1.984h1.566v-1.984ZM30.677 21.646H29.11v1.984h1.566v-1.984ZM27.544 24.698h-1.566v1.983h1.566v-1.983ZM30.677 24.698H29.11v1.983h1.566v-1.983Z"/>
  </svg>

  <svg id="icon-food" viewBox="0 0 40 40">
    <path fill="#81B3D2" d="M37.743 23.85H2.257C.997 23.85 0 24.864 0 26.029v1.773c0 1.165.997 2.128 2.257 2.128h.525v.506c0 2.786 2.362 5.015 5.197 5.015h24.042c2.887 0 5.197-2.28 5.197-5.015v-.506h.525c1.207 0 2.257-.963 2.257-2.178v-1.773c0-1.115-.997-2.128-2.257-2.128Zm-2.047 6.585c0 1.925-1.628 3.495-3.622 3.495H7.927c-1.995 0-3.623-1.57-3.623-3.495v-.506h31.392v.506Zm2.73-2.684c0 .354-.316.658-.683.658H2.257c-.367 0-.682-.304-.682-.658v-1.773c0-.304.315-.608.682-.608h35.538c.368 0 .683.304.683.659v1.722h-.053ZM8.504 19.747l2.835 2.026 2.887-2.026 2.887 2.026L20 19.747l2.835 2.026 2.887-2.026 2.887 2.026 2.887-2.026 2.887 2.026 3.307-2.38-.892-1.216-2.415 1.672-2.887-2.026-2.887 2.026-2.887-2.026-2.887 2.026L20 17.823l-2.887 2.026-2.887-2.026-2.887 2.026-2.835-2.026-2.887 2.026-2.415-1.672-.945 1.216 3.36 2.38 2.887-2.026ZM37.218 16.303c0-.304.052-1.317 0-1.52C36.85 6.883 29.29.55 20 .55S3.097 6.882 2.73 14.784v1.52h34.488ZM20 2.07c8.399 0 15.328 5.673 15.643 12.714H4.304C4.672 7.743 11.601 2.07 20 2.07Z"/><path fill="#81B3D2" d="M20 9.161c.58 0 1.05-.453 1.05-1.013 0-.56-.47-1.013-1.05-1.013-.58 0-1.05.454-1.05 1.013 0 .56.47 1.013 1.05 1.013ZM15.8 6.679c.58 0 1.05-.454 1.05-1.013 0-.56-.47-1.013-1.05-1.013-.58 0-1.05.453-1.05 1.013 0 .56.47 1.013 1.05 1.013ZM24.2 6.679c.58 0 1.05-.454 1.05-1.013 0-.56-.47-1.013-1.05-1.013-.58 0-1.05.453-1.05 1.013 0 .56.47 1.013 1.05 1.013Z"/>
  </svg>

  <svg id="icon-gift" viewBox="0 0 40 40">
    <path fill="#81B3D2" d="M30.578 11.206H18.184c6.908-3.444 7.467-5.622 7.213-6.838-.559-1.975-2.845-3.495-4.978-2.685-2.794 1.064-3.556 5.218-4.317 8.206-.966-3.04-1.88-6.889-4.064-8.864-.61-.557-1.524-1.114-2.895-1.013-2.032.203-4.927 2.684-3.708 5.47 1.117 2.685 4.825 4.407 7.314 5.775H1.422C.61 11.257 0 11.915 0 12.675v5.672c0 .811.66 1.419 1.422 1.419h.153V38h28.952V19.766h.05c.813 0 1.423-.659 1.423-1.418v-5.673c0-.81-.66-1.47-1.422-1.47ZM21.232 2.95c1.066-.152 2.489.658 2.641 1.62.203 1.368-1.676 2.634-2.54 3.192-1.27.86-2.489 1.316-3.657 2.026.407-1.874 1.27-6.534 3.556-6.838ZM9.752 7.914c-1.117-.76-3.25-2.23-3.2-3.9.051-1.824 2.896-3.293 4.42-1.925 1.93 1.671 2.844 5.571 3.555 8.306-1.625-.81-3.15-1.418-4.775-2.481ZM12.75 36.48H3.048V19.765h9.701V36.48Zm0-18.235H1.524v-5.52h11.225v5.52Zm5.08 18.235h-3.607V12.724h3.607V36.48Zm11.174 0h-9.65V19.765h9.701V36.48h-.05Zm1.473-18.235H19.352v-5.52h11.124v5.52Z"/>
  </svg>

  <svg id="icon-mail" viewBox="0 0 58 58">
    <rect width="58" height="58" fill="#E6E6E6"/>
    <path d="M29 31C28.7 31 28.5 30.9 28 30.7L21 27V34C21 34.5 21.5 35 22 35H36C36.5 35 37 34.5 37 34V27L30 30.7C29.5 30.9 29.3 31 29 31ZM36 23H22C21.5 23 21 23.5 21 24V24.8L29 29L37 24.8V24C37 23.5 36.5 23 36 23Z" fill="black"/>
  </svg>

  <svg id="icon-phone" viewBox="0 0 58 58">
    <rect width="58" height="58" fill="#E6E6E6"/>
    <path d="M23.6 27.8C25 30.6 27.4 32.9 30.2 34.4L32.4 32.2C32.7 31.9 33.1 31.8 33.4 32C34.5 32.4 35.7 32.6 37 32.6C37.6 32.6 38 33 38 33.6V37C38 37.6 37.6 38 37 38C27.6 38 20 30.4 20 21C20 20.4 20.4 20 21 20H24.5C25.1 20 25.5 20.4 25.5 21C25.5 22.2 25.7 23.4 26.1 24.6C26.2 24.9 26.1 25.3 25.9 25.6L23.6 27.8Z" fill="#010101"/>
  </svg>

  <svg id="button-play" viewBox="0 0 48 54">
    <path d="M48 27L0 54L2.42273e-06 0L48 27Z" fill="white" fill-opacity="0.7"/>
  </svg>

  <svg id="button-like" viewBox="0 0 23 21">
    <path opacity="0.3" d="M12.9636 3.78L12.3364 6.825L11.7091 9.45H14.3227H20.8045V11.55C20.8045 11.55 20.8045 11.55 20.8045 11.655L17.7727 18.9H8.36364V8.4L12.9636 3.78ZM2.09091 10.5V18.9V10.5ZM13.8 0L6.9 6.93C6.48182 7.245 6.27273 7.77 6.27273 8.4V18.9C6.27273 20.055 7.21364 21 8.36364 21H17.7727C18.6091 21 19.3409 20.475 19.6545 19.74L22.7909 12.285C22.8955 12.075 22.8955 11.76 22.8955 11.55V9.45H23C23 8.295 22.0591 7.35 20.9091 7.35H14.3227L15.3682 2.52V2.205C15.3682 1.785 15.1591 1.365 14.95 1.05L13.8 0ZM4.18182 8.4H0V21H4.18182V8.4Z" fill="black"/>
  </svg>
</svg>
